<?xml version="1.0" encoding="UTF-8" standalone="no"?>
<svg
   id="Outline"
   viewBox="0 0 24 24"
   version="1.1"
   sodipodi:docname="fi-rr-cross-small.svg"
   inkscape:version="1.1 (c68e22c387, 2021-05-23)"
   xmlns:inkscape="http://www.inkscape.org/namespaces/inkscape"
   xmlns:sodipodi="http://sodipodi.sourceforge.net/DTD/sodipodi-0.dtd"
   xmlns="http://www.w3.org/2000/svg"
   xmlns:svg="http://www.w3.org/2000/svg">
  <defs
     id="defs9" />
  <sodipodi:namedview
     id="namedview7"
     pagecolor="#ffffff"
     bordercolor="#666666"
     borderopacity="1.0"
     inkscape:pageshadow="2"
     inkscape:pageopacity="0.0"
     inkscape:pagecheckerboard="0"
     showgrid="false"
     inkscape:zoom="34.666667"
     inkscape:cx="11.985577"
     inkscape:cy="12.014423"
     inkscape:window-width="1920"
     inkscape:window-height="1017"
     inkscape:window-x="1912"
     inkscape:window-y="-8"
     inkscape:window-maximized="1"
     inkscape:current-layer="Outline" />
  <title
     id="title2">181 cross small</title>
  <path
     d="M18,6h0a1,1,0,0,0-1.414,0L12,10.586,7.414,6A1,1,0,0,0,6,6H6A1,1,0,0,0,6,7.414L10.586,12,6,16.586A1,1,0,0,0,6,18H6a1,1,0,0,0,1.414,0L12,13.414,16.586,18A1,1,0,0,0,18,18h0a1,1,0,0,0,0-1.414L13.414,12,18,7.414A1,1,0,0,0,18,6Z"
     id="path4"
     style="fill:#ffffff" />
</svg>
