<?xml version="1.0" encoding="UTF-8" standalone="no"?>
<svg
   id="Outline"
   viewBox="0 0 24 24"
   version="1.1"
   sodipodi:docname="fi-rr-angle-double-small-up.svg"
   inkscape:version="1.1 (c68e22c387, 2021-05-23)"
   xmlns:inkscape="http://www.inkscape.org/namespaces/inkscape"
   xmlns:sodipodi="http://sodipodi.sourceforge.net/DTD/sodipodi-0.dtd"
   xmlns="http://www.w3.org/2000/svg"
   xmlns:svg="http://www.w3.org/2000/svg"
   xmlns:rdf="http://www.w3.org/1999/02/22-rdf-syntax-ns#"
   xmlns:cc="http://creativecommons.org/ns#"
   xmlns:dc="http://purl.org/dc/elements/1.1/">
  <defs
     id="defs11" />
  <sodipodi:namedview
     id="namedview9"
     pagecolor="#ffffff"
     bordercolor="#666666"
     borderopacity="1.0"
     inkscape:pageshadow="2"
     inkscape:pageopacity="0.0"
     inkscape:pagecheckerboard="true"
     showgrid="false"
     inkscape:zoom="34.666667"
     inkscape:cx="13.802884"
     inkscape:cy="11.552885"
     inkscape:window-width="1920"
     inkscape:window-height="1017"
     inkscape:window-x="1912"
     inkscape:window-y="-8"
     inkscape:window-maximized="1"
     inkscape:current-layer="Outline" />
  <title
     id="title2">150 double arrow left small</title>
  <path
     d="m 4.7657466,11.218926 a 1,1 0 0 1 0.2930001,-0.707 L 9.6447465,5.9259261 a 3,3 0 0 1 4.2420005,0 l 4.586,4.5859999 a 1,1 0 0 1 -1.414,1.414 l -4.586,-4.589 a 1,1 0 0 0 -1.414,0 l -4.5860003,4.585 a 1,1 0 0 1 -1.7070001,-0.703 z"
     id="path4"
     style="fill:#ffffff" />
  <path
     d="m 4.8859565,19.054917 a 1,1 0 0 1 0.293,-0.707 l 6.0000005,-6.000001 a 1,1 0 0 1 1.414,0 l 6,6.000001 a 1,1 0 1 1 -1.414,1.414 l -5.293,-5.289 -5.2930005,5.293 a 1,1 0 0 1 -1.707,-0.711 z"
     id="path6"
     style="fill:#ffffff" />
  <metadata
     id="metadata31">
    <rdf:RDF>
      <cc:Work
         rdf:about="">
        <dc:title>150 double arrow left small</dc:title>
      </cc:Work>
    </rdf:RDF>
  </metadata>
</svg>
