<?xml version="1.0" encoding="UTF-8" standalone="no"?>
<svg
   id="Outline"
   viewBox="0 0 24 24"
   version="1.1"
   sodipodi:docname="fi-rr-palette.svg"
   inkscape:version="1.1 (c68e22c387, 2021-05-23)"
   xmlns:inkscape="http://www.inkscape.org/namespaces/inkscape"
   xmlns:sodipodi="http://sodipodi.sourceforge.net/DTD/sodipodi-0.dtd"
   xmlns="http://www.w3.org/2000/svg"
   xmlns:svg="http://www.w3.org/2000/svg">
  <defs
     id="defs17" />
  <sodipodi:namedview
     id="namedview15"
     pagecolor="#ffffff"
     bordercolor="#666666"
     borderopacity="1.0"
     inkscape:pageshadow="2"
     inkscape:pageopacity="0.0"
     inkscape:pagecheckerboard="0"
     showgrid="false"
     inkscape:zoom="34.666667"
     inkscape:cx="11.985577"
     inkscape:cy="12.014423"
     inkscape:window-width="1920"
     inkscape:window-height="1017"
     inkscape:window-x="-8"
     inkscape:window-y="-2"
     inkscape:window-maximized="1"
     inkscape:current-layer="Outline" />
  <title
     id="title2">23 palette</title>
  <path
     d="M17.115,8.05A1.5,1.5,0,1,0,18.95,9.115,1.5,1.5,0,0,0,17.115,8.05Z"
     id="path4"
     style="fill:#ffffff" />
  <path
     d="M12.115,5.05A1.5,1.5,0,1,0,13.95,6.115,1.5,1.5,0,0,0,12.115,5.05Z"
     id="path6"
     style="fill:#ffffff" />
  <path
     d="M7.115,8.05A1.5,1.5,0,1,0,8.95,9.115,1.5,1.5,0,0,0,7.115,8.05Z"
     id="path8"
     style="fill:#ffffff" />
  <path
     d="M7.115,14.05A1.5,1.5,0,1,0,8.95,15.115,1.5,1.5,0,0,0,7.115,14.05Z"
     id="path10"
     style="fill:#ffffff" />
  <path
     d="M12.5.007A12,12,0,0,0,.083,12a12.014,12.014,0,0,0,12,12c.338,0,.67-.022,1-.05a1,1,0,0,0,.916-1l-.032-3.588A3.567,3.567,0,0,1,20.057,16.8l.1.1a1.912,1.912,0,0,0,1.769.521,1.888,1.888,0,0,0,1.377-1.177A11.924,11.924,0,0,0,24.08,11.7,12.155,12.155,0,0,0,12.5.007Zm8.982,15.4-.014-.014a5.567,5.567,0,0,0-9.5,3.985L11.992,22a10,10,0,0,1,.09-20c.117,0,.235,0,.353.006a10.127,10.127,0,0,1,9.645,9.743A9.892,9.892,0,0,1,21.485,15.4Z"
     id="path12"
     style="fill:#ffffff" />
</svg>
