<?xml version="1.0" encoding="UTF-8" standalone="no"?>
<svg
   id="Outline"
   viewBox="0 0 24 24"
   version="1.1"
   sodipodi:docname="fi-rr-picture.svg"
   inkscape:version="1.1 (c68e22c387, 2021-05-23)"
   xmlns:inkscape="http://www.inkscape.org/namespaces/inkscape"
   xmlns:sodipodi="http://sodipodi.sourceforge.net/DTD/sodipodi-0.dtd"
   xmlns="http://www.w3.org/2000/svg"
   xmlns:svg="http://www.w3.org/2000/svg">
  <defs
     id="defs11" />
  <sodipodi:namedview
     id="namedview9"
     pagecolor="#ffffff"
     bordercolor="#666666"
     borderopacity="1.0"
     inkscape:pageshadow="2"
     inkscape:pageopacity="0.0"
     inkscape:pagecheckerboard="0"
     showgrid="false"
     inkscape:zoom="34.666667"
     inkscape:cx="11.985577"
     inkscape:cy="12.014423"
     inkscape:window-width="1920"
     inkscape:window-height="1017"
     inkscape:window-x="-8"
     inkscape:window-y="-2"
     inkscape:window-maximized="1"
     inkscape:current-layer="Outline" />
  <title
     id="title2">26 image landscape</title>
  <path
     d="M19,0H5A5.006,5.006,0,0,0,0,5V19a5.006,5.006,0,0,0,5,5H19a5.006,5.006,0,0,0,5-5V5A5.006,5.006,0,0,0,19,0ZM5,2H19a3,3,0,0,1,3,3V19a2.951,2.951,0,0,1-.3,1.285l-9.163-9.163a5,5,0,0,0-7.072,0L2,14.586V5A3,3,0,0,1,5,2ZM5,22a3,3,0,0,1-3-3V17.414l4.878-4.878a3,3,0,0,1,4.244,0L20.285,21.7A2.951,2.951,0,0,1,19,22Z"
     id="path4"
     style="fill:#ffffff" />
  <path
     d="M16,10.5A3.5,3.5,0,1,0,12.5,7,3.5,3.5,0,0,0,16,10.5Zm0-5A1.5,1.5,0,1,1,14.5,7,1.5,1.5,0,0,1,16,5.5Z"
     id="path6"
     style="fill:#ffffff" />
</svg>
