<?xml version="1.0" encoding="UTF-8" standalone="no"?>
<svg
   id="Outline"
   viewBox="0 0 24 24"
   version="1.1"
   sodipodi:docname="riber.svg"
   inkscape:version="1.1 (c68e22c387, 2021-05-23)"
   xmlns:inkscape="http://www.inkscape.org/namespaces/inkscape"
   xmlns:sodipodi="http://sodipodi.sourceforge.net/DTD/sodipodi-0.dtd"
   xmlns="http://www.w3.org/2000/svg"
   xmlns:svg="http://www.w3.org/2000/svg"
   xmlns:rdf="http://www.w3.org/1999/02/22-rdf-syntax-ns#"
   xmlns:cc="http://creativecommons.org/ns#"
   xmlns:dc="http://purl.org/dc/elements/1.1/">
  <defs
     id="defs9" />
  <sodipodi:namedview
     id="namedview7"
     pagecolor="#ffffff"
     bordercolor="#666666"
     borderopacity="1.0"
     inkscape:pageshadow="2"
     inkscape:pageopacity="0.0"
     inkscape:pagecheckerboard="true"
     showgrid="false"
     inkscape:zoom="16"
     inkscape:cx="18.40625"
     inkscape:cy="16.78125"
     inkscape:window-width="1920"
     inkscape:window-height="1017"
     inkscape:window-x="1912"
     inkscape:window-y="-8"
     inkscape:window-maximized="1"
     inkscape:current-layer="Outline" />
  <title
     id="title2">162 arrow small up</title>
  <path
     d="M 22.701508,6.7328159 13.221267,7.7103371 C 11.737816,7.710089 9.6109321,9.1432593 9.1843177,9.4865731 L 2.2596901,15.4806 C 1.2414098,16.305309 -0.01469631,14.808341 0.97430866,13.948741 L 7.8989369,7.9547153 C 9.1805659,6.9294331 10.374116,6.1022323 12.92731,5.7550431 l 9.569224,-0.991917 c 0.994168,-0.041426 1.136063,1.9389131 0.20497,1.9696902 z"
     id="path4"
     style="fill:#ffffff"
     sodipodi:nodetypes="ccccccccc" />
  <path
     d="m 23.126631,11.34001 -9.35897,1.800058 c -1.477827,0.129044 -3.471708,1.742131 -3.866777,2.12132 l -6.3758645,6.574738 c -0.9425264,0.910322 -2.3243224,-0.471474 -1.414,-1.414 L 8.486884,13.847388 c 1.187393,-1.133082 2.304306,-2.06116 4.817524,-2.629553 L 22.750767,9.39568 c 0.986774,-0.127916 1.300727,1.83252 0.375864,1.94433 z"
     id="path2801"
     style="fill:#ffffff"
     sodipodi:nodetypes="ccccccccc" />
  <metadata
     id="metadata2901">
    <rdf:RDF>
      <cc:Work
         rdf:about="">
        <dc:title>162 arrow small up</dc:title>
      </cc:Work>
    </rdf:RDF>
  </metadata>
</svg>
