<?xml version="1.0" encoding="UTF-8" standalone="no"?>
<svg
   id="Outline"
   viewBox="0 0 24 24"
   version="1.1"
   sodipodi:docname="fi-rr-world.svg"
   inkscape:version="1.1 (c68e22c387, 2021-05-23)"
   xmlns:inkscape="http://www.inkscape.org/namespaces/inkscape"
   xmlns:sodipodi="http://sodipodi.sourceforge.net/DTD/sodipodi-0.dtd"
   xmlns="http://www.w3.org/2000/svg"
   xmlns:svg="http://www.w3.org/2000/svg"
   xmlns:rdf="http://www.w3.org/1999/02/22-rdf-syntax-ns#"
   xmlns:cc="http://creativecommons.org/ns#"
   xmlns:dc="http://purl.org/dc/elements/1.1/">
  <defs
     id="defs9" />
  <sodipodi:namedview
     id="namedview7"
     pagecolor="#e3e3e3"
     bordercolor="#666666"
     borderopacity="1.0"
     inkscape:pageshadow="2"
     inkscape:pageopacity="1"
     inkscape:pagecheckerboard="true"
     showgrid="false"
     inkscape:zoom="34.666667"
     inkscape:cx="11.985577"
     inkscape:cy="12.014423"
     inkscape:window-width="1920"
     inkscape:window-height="1017"
     inkscape:window-x="-8"
     inkscape:window-y="-2"
     inkscape:window-maximized="1"
     inkscape:current-layer="Outline">
    <inkscape:grid
       type="xygrid"
       id="grid7" />
  </sodipodi:namedview>
  <title
     id="title2">132 world</title>
  <path
     d="M12,0A12,12,0,1,0,24,12,12.013,12.013,0,0,0,12,0ZM22,12a9.938,9.938,0,0,1-1.662,5.508l-1.192-1.193A.5.5,0,0,1,19,15.962V15a3,3,0,0,0-3-3H13a1,1,0,0,1-1-1v-.5a.5.5,0,0,1,.5-.5A2.5,2.5,0,0,0,15,7.5v-1a.5.5,0,0,1,.5-.5h1.379a2.516,2.516,0,0,0,1.767-.732l.377-.377A9.969,9.969,0,0,1,22,12Zm-19.951.963,3.158,3.158A2.978,2.978,0,0,0,7.329,17H10a1,1,0,0,1,1,1v3.949A10.016,10.016,0,0,1,2.049,12.963ZM13,21.949V18a3,3,0,0,0-3-3H7.329a1,1,0,0,1-.708-.293L2.163,10.249A9.978,9.978,0,0,1,17.456,3.63l-.224.224A.507.507,0,0,1,16.879,4H15.5A2.5,2.5,0,0,0,13,6.5v1a.5.5,0,0,1-.5.5A2.5,2.5,0,0,0,10,10.5V11a3,3,0,0,0,3,3h3a1,1,0,0,1,1,1v.962a2.516,2.516,0,0,0,.732,1.767l1.337,1.337A9.971,9.971,0,0,1,13,21.949Z"
     id="path4"
     style="fill:#ffffff" />
  <metadata
     id="metadata9">
    <rdf:RDF>
      <cc:Work
         rdf:about="">
        <dc:title>132 world</dc:title>
      </cc:Work>
    </rdf:RDF>
  </metadata>
</svg>
